<!--?xml version="1.0" encoding="utf-8"?-->
<!-- Generator: Adobe Illustrator 15.1.0, SVG Export Plug-In . SVG Version: 6.00 Build 0)  -->

<svg version="1.1" id="_x32_" xmlns="http://www.w3.org/2000/svg" xmlns:xlink="http://www.w3.org/1999/xlink" x="0px" y="0px" width="512px" height="512px" viewBox="0 0 512 512" style="width: 32px; height: 32px; opacity: 1;" xml:space="preserve">
<style type="text/css">

	.st0{fill:#4B4B4B;}

</style>
<g>
	<path class="st0" d="M256,0C115.938,0,1.969,113.969,1.969,254.031c0,50.75,14.641,98.984,42.531,140.672l-14.094,67.359
		c-3.156,14.969,2.234,30.469,13.984,40.281C51.969,508.688,61.422,512,70.969,512c5.25,0,10.531-1,15.563-3.031l61.625-24.953
		c33.641,15.781,70.531,24.047,107.844,24.047c140.078,0,254.031-113.953,254.031-254.031C510.031,113.969,396.078,0,256,0z
		 M256,466.609c-38.5,0-74.563-10.281-105.703-28.172l-79.328,32.109l17.859-85.297c-28.422-36.125-45.406-81.672-45.406-131.219
		c0-117.406,95.172-212.578,212.578-212.578s212.594,95.172,212.594,212.578S373.406,466.609,256,466.609z" style="fill: rgb(95, 95, 95);"></path>
</g>
</svg>
