<!--?xml version="1.0" encoding="utf-8"?-->
<!-- Generator: Adobe Illustrator 15.1.0, SVG Export Plug-In . SVG Version: 6.00 Build 0)  -->

<svg version="1.1" id="_x32_" xmlns="http://www.w3.org/2000/svg" xmlns:xlink="http://www.w3.org/1999/xlink" x="0px" y="0px" width="512px" height="512px" viewBox="0 0 512 512" style="width: 256px; height: 256px; opacity: 1;" xml:space="preserve">
<style type="text/css">

	.st0{fill:#4B4B4B;}

</style>
<g>
	<path class="st0" d="M215.906,35.272C223.438,20.006,238.984,10.35,256,10.35s32.563,9.656,40.094,24.922l44.484,90.141
		c6.516,13.188,19.094,22.344,33.656,24.453l99.484,14.453c16.844,2.453,30.828,14.25,36.094,30.438
		c5.266,16.172,0.875,33.953-11.313,45.828l-71.984,70.156c-10.531,10.281-15.344,25.078-12.859,39.578l17,99.062
		c2.875,16.781-4.031,33.734-17.797,43.734s-32.016,11.313-47.078,3.406l-88.984-46.781c-13.016-6.844-28.578-6.844-41.609,0
		l-88.969,46.781c-15.063,7.906-33.313,6.594-47.078-3.406c-13.781-10-20.672-26.953-17.797-43.734l17-99.062
		c2.484-14.5-2.328-29.297-12.859-39.578L13.5,240.584C1.313,228.709-3.078,210.928,2.188,194.756
		c5.266-16.188,19.25-27.984,36.094-30.438l99.484-14.453c14.547-2.109,27.141-11.266,33.656-24.453L215.906,35.272z" style="fill: rgb(255, 255, 0);"></path>
</g>
</svg>
